<svg id="Capa_1" enable-background="new 0 0 512 512" height="512" viewBox="0 0 512 512" width="512" xmlns="http://www.w3.org/2000/svg"><g><g><path clip-rule="evenodd" d="m423.284 147.082c0-14.236-11.715-25.886-25.994-25.886h-43.653l-12.909 35.909 43.508 15.892h13.055c14.278 0 25.993-11.65 25.993-25.915z" fill="#e8eaea" fill-rule="evenodd"/></g><g><path clip-rule="evenodd" d="m77.293 121.196h-43.683c-14.279 0-25.965 11.65-25.965 25.886 0 14.265 11.686 25.915 25.965 25.915h13.084l40.244-15.892z" fill="#e8eaea" fill-rule="evenodd"/></g><g><path clip-rule="evenodd" d="m334.87 66.81c-2.739-7.874-13.9-17.81-29.461-17.81h-89.959-89.958c-15.532 0-26.722 9.936-29.432 17.81l-18.767 54.387-11.015 31.929-19.583 19.872-11.627 11.795c-11.365 14.352-9.704 26.293-9.704 43.811l.087 54.532 178.285 14.352 114.582-14.352c18.155-1.191 41.031 1.017 54.057-1.336 22.672-4.125 29.811-15.543 33.162-35.909v-17.286c0-17.519 1.69-29.459-9.675-43.811l-11.627-11.795-19.583-19.872-11.015-31.929z" fill="#fe636e" fill-rule="evenodd"/></g><g><path clip-rule="evenodd" d="m296.025 86.565h-80.575-80.546c-3.293 0-4.867 3.08-5.974 6.392l-19.146 57.757c-1.107 3.312 2.681 6.392 5.945 6.392h99.721 99.75c3.264 0 7.052-3.08 5.945-6.392l-19.175-57.757c-1.078-3.312-2.681-6.392-5.945-6.392z" fill="#6bd9e7" fill-rule="evenodd"/></g><g><path clip-rule="evenodd" d="m354.54 198.738h-45.78c-5.129 0-9.325 4.184-9.325 9.297v17.344c0 5.113 4.196 9.297 9.325 9.297h45.781c5.129 0 9.325-4.184 9.325-9.297v-17.344c0-5.114-4.197-9.297-9.326-9.297z" fill="#e8eaea" fill-rule="evenodd"/></g><g><path clip-rule="evenodd" d="m122.17 198.738h-45.781c-5.129 0-9.325 4.184-9.325 9.297v17.344c0 5.113 4.196 9.297 9.325 9.297h45.781c5.129 0 9.325-4.184 9.325-9.297v-17.344c0-5.114-4.196-9.297-9.325-9.297z" fill="#e8eaea" fill-rule="evenodd"/></g><g><path clip-rule="evenodd" d="m344.545 282.874-319.094.261c-9.879 0-17.951 8.048-17.951 17.896v7.496c0 9.82 8.072 17.867 17.951 17.867h65.8 250.321c29.258-4.241 18.534-43.549 2.973-43.52z" fill="#cecece" fill-rule="evenodd"/></g><g><path clip-rule="evenodd" d="m91.251 326.395-32.463-15.805-33.337 15.805v36.142c0 7.699 6.324 14.032 14.075 14.032h37.65c7.752 0 14.075-6.333 14.075-14.032z" fill="#737a93" fill-rule="evenodd"/></g><g><path clip-rule="evenodd" d="m190.01 139.47h-76.495l-3.73 11.243c-1.107 3.312 2.681 6.392 5.945 6.392h99.721 99.75c3.264 0 7.052-3.08 5.945-6.392l-19.176-57.756c-1.078-3.312-2.681-6.392-5.945-6.392h-18.33l13.988 46.513c1.02 3.341-2.681 6.392-5.945 6.392z" fill="#00c7dd" fill-rule="evenodd"/></g><g><path clip-rule="evenodd" d="m353.637 121.196-18.767-54.386c-2.739-7.874-13.9-17.81-29.461-17.81h-25.149c13.638 1.394 23.313 10.372 25.819 17.635l18.767 54.357 11.015 31.929 19.583 19.872 11.627 11.824c11.365 14.352 9.704 26.293 9.704 43.782l-.029 17.315c-.087.523-.175 1.046-.262 1.569 1.34-.872 2.914-1.365 4.604-1.395h.087 2.04 22.322v-17.286c0-17.519 1.69-29.459-9.675-43.811l-11.627-11.795-19.583-19.872z" fill="#f93e55" fill-rule="evenodd"/></g><g><path clip-rule="evenodd" d="m423.284 147.082c0-10.517-6.382-19.64-15.474-23.678.35 1.743.554 3.544.554 5.404 0 14.265-11.686 25.915-25.965 25.915h-13.084l-4.721-1.714.058.116 19.583 19.872h13.055c14.279 0 25.994-11.65 25.994-25.915z" fill="#d4d6d8" fill-rule="evenodd"/></g><g><path clip-rule="evenodd" d="m7.646 147.082c0-10.517 6.382-19.64 15.474-23.678-.379 1.743-.583 3.544-.583 5.404 0 14.265 11.715 25.915 25.994 25.915h13.084l4.692-1.714-.029.116-19.583 19.872h-13.085c-14.279 0-25.964-11.65-25.964-25.915z" fill="#d4d6d8" fill-rule="evenodd"/></g><g><path clip-rule="evenodd" d="m91.251 310.59h-65.8c-8.451 0-15.561-5.898-17.455-13.742-.321 1.336-.495 2.731-.495 4.184v7.496c0 9.82 8.072 17.867 17.951 17.867h65.8 215.527c1.748-5.491 3.992-10.808 6.702-15.805z" fill="#baafb9" fill-rule="evenodd"/></g><g><path clip-rule="evenodd" d="m91.251 362.536v-36.142h-25.702v36.142c0 7.699-6.353 14.032-14.104 14.032h25.732c7.751.001 14.074-6.333 14.074-14.032z" fill="#606b82" fill-rule="evenodd"/></g><g><path clip-rule="evenodd" d="m299.435 216.721v8.658c0 5.113 4.196 9.297 9.325 9.297h45.781c5.129 0 9.325-4.184 9.325-9.297v-8.658z" fill="#d4d6d8" fill-rule="evenodd"/></g><g><path clip-rule="evenodd" d="m67.064 216.721v8.658c0 5.113 4.196 9.297 9.325 9.297h45.781c5.129 0 9.325-4.184 9.325-9.297v-8.658z" fill="#d4d6d8" fill-rule="evenodd"/></g><g><path clip-rule="evenodd" d="m372.52 264.455c-8.684 2.208-16.902 5.636-24.42 10.081l-7.052-7.031c-3.351-3.341-8.859-3.341-12.21 0l-20.428 20.366c-3.38 3.341-3.38 8.832 0 12.173l7.052 7.06c-4.459 7.496-7.897 15.659-10.112 24.317h-9.966c-4.779 0-8.655 3.893-8.655 8.629v28.791c0 4.736 3.876 8.629 8.655 8.629h9.966c2.215 8.658 5.653 16.851 10.112 24.346l-7.052 7.031c-3.38 3.341-3.38 8.832 0 12.173l20.428 20.366c3.351 3.37 8.859 3.37 12.21 0l7.052-7.031c7.518 4.445 15.736 7.873 24.42 10.081v9.936c0 4.765 3.905 8.629 8.655 8.629h28.879c4.75 0 8.655-3.864 8.655-8.629v-9.936c8.684-2.208 16.873-5.636 24.391-10.081l7.081 7.031c3.351 3.37 8.859 3.37 12.21 0l20.428-20.366c3.351-3.341 3.351-8.832 0-12.173l-7.052-7.031c4.459-7.496 7.897-15.688 10.112-24.346h9.966c4.75 0 8.655-3.893 8.655-8.629v-28.791c0-4.736-3.905-8.629-8.655-8.629h-9.966c-2.215-8.658-5.653-16.821-10.112-24.317l7.052-7.06c3.351-3.341 3.351-8.832 0-12.173l-20.428-20.366c-3.351-3.341-8.859-3.341-12.21 0l-7.081 7.031c-7.518-4.445-15.707-7.873-24.391-10.081v-9.936c0-4.736-3.905-8.629-8.655-8.629h-28.879c-4.75 0-8.655 3.893-8.655 8.629z" fill="#737a93" fill-rule="evenodd"/></g><g><path clip-rule="evenodd" d="m340.465 354.46c0 30.36 24.682 54.968 55.135 54.968 30.482 0 55.164-24.608 55.164-54.968 0-30.389-24.682-54.997-55.164-54.997-30.452 0-55.135 24.608-55.135 54.997z" fill="#e8eaea" fill-rule="evenodd"/></g><g><path clip-rule="evenodd" d="m413.959 346.093c0 22.893-3.73 44.363-10.228 62.754 26.606-3.922 47.034-26.787 47.034-54.387 0-25.799-17.834-47.443-41.846-53.37 3.262 13.945 5.04 29.111 5.04 45.003z" fill="#d4d6d8" fill-rule="evenodd"/></g><g><path clip-rule="evenodd" d="m408.917 301.09c24.012 5.927 41.846 27.571 41.846 53.37 0 27.6-20.428 50.464-47.034 54.387-7.285 20.54-18.038 37.245-30.889 47.85 1.02 3.632 4.371 6.304 8.334 6.304h28.879c4.75 0 8.655-3.864 8.655-8.629v-9.936c11.54-2.934 16.436-8.019 21.448-8.396 2.856-.203 5.77 1.133 10.025 5.346 3.351 3.37 8.859 3.37 12.21 0l20.428-20.366c3.351-3.341 3.351-8.832 0-12.173l-7.052-7.031c4.459-7.496 7.897-15.688 10.112-24.346h9.966c4.75 0 8.655-3.893 8.655-8.629v-28.791c0-4.736-3.905-8.629-8.655-8.629h-9.966c-2.215-8.658-5.653-16.821-10.112-24.317l7.052-7.06c3.351-3.341 3.351-8.832 0-12.173l-20.428-20.366c-3.351-3.341-8.859-3.341-12.21 0l-7.081 7.031c-7.518-4.445-15.707-7.873-24.391-10.081v-9.936c0-4.736-3.876-8.6-8.597-8.629h-.058-26.839c11.453 13.771 20.457 32.888 25.702 55.2z" fill="#606b82" fill-rule="evenodd"/></g><g><path d="m115.73 164.605h82.207c4.142 0 7.5-3.358 7.5-7.5s-3.358-7.5-7.5-7.5h-79.883l17.99-54.27c.182-.544.341-.958.473-1.27h157.878c.129.309.282.718.457 1.255l18.022 54.285h-79.357c-4.142 0-7.5 3.358-7.5 7.5s3.358 7.5 7.5 7.5h81.683c4.35 0 8.813-2.296 11.372-5.849 2.244-3.116 2.858-6.915 1.691-10.406l-19.161-57.715c-3.113-9.563-8.83-11.57-13.077-11.57h-161.121c-6.129 0-10.532 3.874-13.093 11.532l-19.139 57.738c-1.172 3.506-.558 7.305 1.686 10.421 2.559 3.553 7.022 5.849 11.372 5.849z"/><path d="m291.935 208.034v17.344c0 9.262 7.548 16.797 16.825 16.797h45.78c9.277 0 16.825-7.535 16.825-16.797v-17.344c0-9.262-7.548-16.797-16.825-16.797h-45.78c-9.277.001-16.825 7.536-16.825 16.797zm64.431 0v17.344c0 .974-.836 1.797-1.825 1.797h-45.78c-.989 0-1.825-.823-1.825-1.797v-17.344c0-.974.836-1.797 1.825-1.797h45.78c.989.001 1.825.823 1.825 1.797z"/><path d="m263.358 207.826h-95.786c-4.142 0-7.5 3.358-7.5 7.5s3.358 7.5 7.5 7.5h95.786c4.143 0 7.5-3.358 7.5-7.5s-3.358-7.5-7.5-7.5z"/><path d="m246.398 237.635h-61.866c-4.142 0-7.5 3.358-7.5 7.5s3.358 7.5 7.5 7.5h61.866c4.142 0 7.5-3.358 7.5-7.5s-3.358-7.5-7.5-7.5z"/><path d="m59.564 208.034v17.344c0 9.262 7.547 16.797 16.825 16.797h45.781c9.277 0 16.825-7.535 16.825-16.797v-17.344c0-9.262-7.548-16.797-16.825-16.797h-45.781c-9.277.001-16.825 7.536-16.825 16.797zm15 0c0-.974.835-1.797 1.825-1.797h45.781c.989 0 1.825.823 1.825 1.797v17.344c0 .974-.836 1.797-1.825 1.797h-45.781c-.989 0-1.825-.823-1.825-1.797z"/><path d="m495.845 323.921h-4.322c-1.707-5.333-3.865-10.522-6.455-15.517l3.046-3.049c3.043-3.034 4.719-7.082 4.719-11.398 0-4.317-1.676-8.365-4.719-11.398l-20.428-20.366c-6.286-6.266-16.515-6.264-22.789-.01l-3.092 3.07c-5.02-2.589-10.235-4.746-15.597-6.451v-4.283c0-7.875-5.686-14.439-13.171-15.842 0 0 .023-14.081.046-15.982.177-14.91.328-27.79-11.301-42.507 16.35-2.197 29.002-16.201 29.002-33.106 0-18.409-15.025-33.386-33.493-33.386h-38.309l-17.027-49.351c-3.854-11.075-17.972-22.845-36.546-22.845h-179.917c-18.611 0-32.708 11.782-36.522 22.863l-17.022 49.333h-38.338c-18.453 0-33.465 14.977-33.465 33.386 0 16.913 12.652 30.922 29 33.109-11.645 14.738-11.498 27.642-11.326 42.581.021 1.877.044 3.817.044 5.845l.077 48.149c-10.379 3.204-17.94 12.87-17.94 24.266v7.496c0 11.386 7.566 21.043 17.951 24.242v29.767c0 11.873 9.679 21.532 21.575 21.532h37.65c11.896 0 21.575-9.659 21.575-21.532v-28.642h67.363c4.142 0 7.5-3.358 7.5-7.5s-3.358-7.5-7.5-7.5h-74.863-65.8c-5.763 0-10.451-4.651-10.451-10.367v-7.496c0-5.732 4.688-10.396 10.457-10.396h.006l273.314-.221c-.257 1.15-.402 2.334-.402 3.543 0 4.329 1.691 8.384 4.729 11.387l3.057 3.06c-1.767 3.409-3.318 6.915-4.677 10.49h-99.788c-4.142 0-7.5 3.358-7.5 7.5s3.358 7.5 7.5 7.5h78.762c-.788 1.898-1.229 3.975-1.229 6.155v28.791c0 8.894 7.247 16.129 16.155 16.129h4.321c1.709 5.349 3.866 10.543 6.45 15.534l-3.019 3.009c-3.071 3.036-4.763 7.091-4.763 11.419 0 4.329 1.691 8.385 4.74 11.399l20.405 20.342c3.038 3.056 7.095 4.739 11.422 4.74h.001c4.327 0 8.385-1.683 11.4-4.717l3.063-3.054c5.016 2.584 10.237 4.741 15.613 6.448v4.282c0 8.893 7.247 16.128 16.155 16.128h28.879c8.907 0 16.154-7.235 16.154-16.128v-4.283c5.362-1.705 10.578-3.863 15.597-6.452l3.058 3.037c3.04 3.056 7.097 4.739 11.424 4.739 4.326 0 8.383-1.683 11.399-4.716l20.428-20.366c3.043-3.034 4.719-7.082 4.719-11.399 0-4.316-1.676-8.364-4.719-11.396l-3.041-3.032c2.585-4.991 4.742-10.187 6.451-15.534h4.321c8.908 0 16.155-7.235 16.155-16.129v-28.791c.003-8.894-7.244-16.129-16.152-16.129zm-412.094 9.974v28.642c0 3.541-3.011 6.532-6.575 6.532h-37.65c-3.564 0-6.575-2.991-6.575-6.532v-28.642zm313.54-205.199c10.197 0 18.493 8.248 18.493 18.386 0 10.154-8.296 18.415-18.493 18.415h-9.915l-16.189-16.426-7.03-20.375zm-294.14-59.446c1.53-4.446 9.654-12.75 22.341-12.75h179.917c12.674 0 20.829 8.319 22.372 12.755l29.781 86.315c.365 1.058.963 2.021 1.748 2.818l19.59 19.876c.019.019.038.039.057.058l11.269 11.434c8.123 10.426 8.023 18.866 7.858 32.76-.023 1.958-.047 15.873-.047 15.873h-16.862c-8.908 0-16.155 7.235-16.155 16.129v4.282c-5.376 1.707-10.597 3.863-15.613 6.448l-3.063-3.055c-6.287-6.267-16.515-6.266-22.8 0l-13.253 13.212-277.352.224-.075-47.026c0-2.075-.023-4.072-.045-6.005-.16-13.93-.257-22.392 7.886-32.842l11.274-11.439c.015-.015.029-.03.044-.045l19.597-19.884c.786-.797 1.383-1.76 1.748-2.818zm-88.005 77.832c0-10.138 8.283-18.386 18.465-18.386h33.162l-7.03 20.375-16.189 16.426h-9.944c-10.181 0-18.464-8.261-18.464-18.415zm481.854 221.759c0 .591-.551 1.129-1.155 1.129h-9.966c-3.426 0-6.417 2.322-7.266 5.641-2.01 7.856-5.137 15.383-9.293 22.371-1.756 2.952-1.281 6.72 1.151 9.145l7.052 7.032c.255.254.309.561.309.774s-.054.521-.309.775l-20.451 20.389c-.26.261-.571.316-.786.316-.216 0-.527-.055-.821-.35l-7.081-7.031c-2.422-2.406-6.163-2.87-9.102-1.134-7.025 4.154-14.569 7.272-22.422 9.269-3.325.845-5.652 3.838-5.652 7.269v9.936c0 .612-.528 1.128-1.154 1.128h-28.879c-.626 0-1.155-.517-1.155-1.128v-9.936c0-3.43-2.327-6.423-5.651-7.269-7.888-2.006-15.441-5.124-22.451-9.269-1.188-.702-2.506-1.044-3.815-1.044-1.936 0-3.853.749-5.297 2.189l-7.075 7.053c-.26.261-.571.316-.787.316s-.526-.055-.81-.339l-20.451-20.388c-.254-.251-.308-.548-.308-.753 0-.204.054-.501.33-.774l7.053-7.031c2.433-2.425 2.907-6.193 1.15-9.146-4.155-6.985-7.281-14.511-9.292-22.371-.849-3.319-3.84-5.641-7.266-5.641h-9.966c-.626 0-1.155-.517-1.155-1.129v-28.79c0-.612.529-1.128 1.155-1.128h9.966c3.426 0 6.417-2.322 7.266-5.641 2.002-7.826 5.129-15.342 9.292-22.342 1.754-2.948 1.284-6.709-1.14-9.135l-7.086-7.092c-.254-.251-.308-.548-.308-.753s.054-.502.33-.775l4.993-4.978c.002-.002.003-.003.005-.005l15.432-15.384c.422-.422 1.195-.422 1.619 0l7.052 7.031c2.422 2.415 6.171 2.885 9.111 1.145 7.012-4.145 14.565-7.263 22.452-9.269 3.324-.845 5.651-3.838 5.651-7.269v-9.936c0-.591.551-1.129 1.155-1.129h28.879c.604 0 1.154.538 1.154 1.129v9.936c0 3.43 2.327 6.423 5.652 7.269 7.853 1.997 15.396 5.115 22.423 9.269 2.936 1.737 6.679 1.271 9.101-1.134l7.092-7.041c.424-.422 1.196-.424 1.62 0l20.428 20.366c.255.254.309.562.309.775s-.054.521-.32.786l-7.052 7.06c-2.423 2.426-2.893 6.187-1.14 9.134 4.165 7.002 7.291 14.52 9.293 22.342.849 3.319 3.84 5.641 7.266 5.641h9.966c.604 0 1.155.538 1.155 1.128z"/><path d="m395.6 291.963c-12.881 0-25.258 3.882-35.791 11.226-3.398 2.369-4.232 7.044-1.863 10.441 2.369 3.398 7.043 4.233 10.441 1.863 8.005-5.581 17.415-8.53 27.213-8.53 26.282 0 47.664 21.307 47.664 47.497 0 26.174-21.382 47.468-47.664 47.468-26.266 0-47.635-21.294-47.635-47.468 0-5.411.896-10.689 2.661-15.69 1.379-3.906-.669-8.19-4.575-9.569-3.906-1.378-8.189.669-9.569 4.575-2.333 6.608-3.517 13.568-3.517 20.684 0 34.445 28.098 62.468 62.635 62.468 34.553 0 62.664-28.023 62.664-62.468 0-34.461-28.111-62.497-62.664-62.497z"/></g></g></svg>