<svg id="Capa_1" enable-background="new 0 0 607.696 607.696" height="512" viewBox="0 0 607.696 607.696" width="512" xmlns="http://www.w3.org/2000/svg"><g><g id="Page-1_58_"><g id="_x30_59---Car-Mechanics" transform="translate(-1)"><path id="Shape_434_" d="m467.635 520.854c0 5.993 4.858 10.851 10.851 10.851h75.956c5.993 0 10.851-4.858 10.851-10.851v-32.553h-97.658z"/><path id="Shape_433_" d="m142.109 437.737c12.693 7.319 23.767 17.138 32.553 28.863h401.482c5.993 0 10.851-4.858 10.851-10.851v-21.702h-444.886z"/><path id="Shape_432_" d="m126.451 453.948c-3.709-1.838-6.05-5.626-6.033-9.766v-280.733c-.016-4.14 2.324-7.928 6.033-9.766 28.637-14.282 47.12-43.133 48.124-75.117 1.004-31.985-15.633-61.938-43.318-77.988v53.69c.015 11.897-4.855 23.279-13.47 31.484s-20.221 12.514-32.104 11.919c-23.535-1.723-41.63-21.523-41.233-45.118v-51.976c-27.775 16.038-44.46 46.07-43.403 78.126 1.427 31.794 19.884 60.349 48.286 74.708 3.663 1.846 5.972 5.599 5.968 9.701v281.45c-.002 4.091-2.305 7.834-5.957 9.679-28.41 14.358-46.871 42.919-48.297 74.719-1.058 32.056 15.627 62.089 43.403 78.126v-51.976c-.434-23.551 17.593-43.344 41.081-45.107 11.908-.638 23.554 3.652 32.203 11.862s13.539 19.617 13.522 31.542v53.712c27.706-16.045 44.359-46.013 43.353-78.014-1.007-32.001-19.51-60.863-48.17-75.135z"/><path id="Shape_431_" d="m142.109 169.937v41.96c47.744-3.776 102.356-5.718 162.763-5.718 73.146-.782 146.269 3.031 218.938 11.415l-37.869-98.678c-2.843-7.365-9.472-12.597-17.296-13.65-54.377-5.963-109.076-8.5-163.772-7.596-41.917 0-79.211.998-111.471 2.897-6.664 29.271-25.261 54.422-51.293 69.37zm148.722-47.385c4.236 4.237 4.236 11.106 0 15.343l-43.403 43.403c-4.258 4.112-11.025 4.053-15.211-.132-4.186-4.186-4.244-10.953-.132-15.211l43.403-43.403c2.035-2.038 4.797-3.182 7.677-3.182s5.642 1.145 7.677 3.182zm-80.449 10.851 10.851-10.851c4.258-4.112 11.025-4.053 15.211.132 4.186 4.186 4.244 10.953.132 15.211l-10.851 10.851c-4.258 4.112-11.025 4.053-15.211-.132-4.185-4.186-4.244-10.954-.132-15.211z"/><path id="Shape_430_" d="m569.144 224.691c.791-.443 1.54-.959 2.235-1.541 4.682-4.652 6.09-11.671 3.567-17.769s-8.48-10.069-15.08-10.053h-21.354l9.885 25.76c7.531 1.194 14.476 2.453 20.747 3.603z"/><path id="Shape_429_" d="m600.959 254.466c-26.834-7.986-109.366-26.585-296.087-26.585-60.57 0-115.193 1.964-162.763 5.794v89.813c4.958-8.18 11.043-15.621 18.078-22.103 6.022-5.419 13.84-8.411 21.94-8.399h245.49c8.102-.008 15.92 2.988 21.94 8.409 18.254 18.791 31.172 42.106 37.425 67.547h121.714v-104.071c.03-4.805-3.126-9.05-7.737-10.405zm-274.386 16.819h-43.403c-5.993 0-10.851-4.858-10.851-10.851s4.858-10.851 10.851-10.851h43.403c5.993 0 10.851 4.858 10.851 10.851s-4.858 10.851-10.851 10.851zm227.868 75.956h-21.701c-17.978 0-32.553-14.574-32.553-32.553v-10.851c0-11.986 9.716-21.702 21.702-21.702h32.553c17.978 0 32.553 14.574 32.553 32.553s-14.575 32.553-32.554 32.553z"/><path id="Shape_428_" d="m554.441 303.837h-32.553v10.851c0 5.993 4.858 10.851 10.851 10.851h21.702c5.993 0 10.851-4.858 10.851-10.851s-4.858-10.851-10.851-10.851z"/><path id="Shape_427_" d="m142.109 390.644v21.702h455.736c5.993 0 10.851-4.858 10.851-10.851v-10.851z"/><path id="Shape_426_" d="m427.617 314.688h-245.49c-2.741-.004-5.385 1.009-7.422 2.843-13.922 14.417-24.009 32.092-29.341 51.411h319.015c-5.318-19.312-15.391-36.984-29.297-51.401-2.046-1.847-4.708-2.865-7.465-2.853z"/></g></g></g></svg>